<svg id="Layer_1" data-name="Layer 1" xmlns="http://www.w3.org/2000/svg" viewBox="0 0 197 238"><defs><style>.cls-1,.cls-2,.cls-3{fill:#333;}.cls-2,.cls-3{stroke:#fff;stroke-miterlimit:10;}.cls-2{stroke-width:4px;}.cls-3{stroke-width:2px;}</style></defs><title>Vietri Icon Set</title><path class="cls-1" d="M129.81,112.22a23,23,0,0,0-1.47-7.65,16.07,16.07,0,0,0-9.21-9.21,23,23,0,0,0-7.64-1.46c-3.36-.16-4.44-.19-13-.19s-9.63,0-13,.19a23,23,0,0,0-7.64,1.46,16.07,16.07,0,0,0-9.21,9.21,23,23,0,0,0-1.47,7.65c-.15,3.36-.19,4.43-.19,13s0,9.63.19,13a23.07,23.07,0,0,0,1.47,7.65,16.07,16.07,0,0,0,9.21,9.21,23,23,0,0,0,7.64,1.46c3.36.16,4.44.19,13,.19s9.63,0,13-.19a23,23,0,0,0,7.64-1.46,16.07,16.07,0,0,0,9.21-9.21,23.07,23.07,0,0,0,1.47-7.65c.15-3.36.19-4.43.19-13S130,115.58,129.81,112.22Z"/><circle class="cls-2" cx="98.5" cy="125.2" r="14.44"/><circle class="cls-3" cx="116.66" cy="106.3" r="3.72"/></svg>