<svg id="Layer_1" data-name="Layer 1" xmlns="http://www.w3.org/2000/svg" viewBox="0 0 197 238"><defs><style>.cls-1{fill:#333;}</style></defs><title>Vietri Icon Set</title><path class="cls-1" d="M85.53,156.57c-3.73-1.48-2.87-7.67-2.32-10,.71-3,4.55-19.26,5-21a15.61,15.61,0,0,1-1.22-6.2c0-5.91,3.5-10.53,8-10.53,3.47,0,5.71,2.47,5.71,6.3,0,2.34-.93,5.34-1.91,8.53-.55,1.77-1.12,3.6-1.54,5.37a5.47,5.47,0,0,0,1,4.75,5.93,5.93,0,0,0,4.72,2.17c6.76,0,11.87-8.68,11.87-20.21,0-8.77-6.17-14.43-15.72-14.43-12.13,0-18.68,9.35-18.68,18.16,0,3,.06,4.68,1.71,6.64a2.33,2.33,0,0,1,.66,2.58l-.8,3.12a1.77,1.77,0,0,1-1.73,1.46,2.19,2.19,0,0,1-.84-.18c-5.16-2.11-7.5-7.13-7.5-14.59,0-15.5,14.36-24.75,28.25-24.75,15.69,0,25.07,11.56,25.07,22.73,0,15.71-9,27.11-21.44,27.11-3.67,0-7.45-1.73-9.31-4.16-.61,2.41-2.1,8.3-2.48,9.66-.66,2.41-2.83,8.82-6.54,7.47"/></svg>