<svg id="Layer_1" data-name="Layer 1" xmlns="http://www.w3.org/2000/svg" viewBox="0 0 197 238"><defs><style>.cls-1{fill:#333;}</style></defs><title>Vietri Icon Set</title><path class="cls-1" d="M136.15,101.16a30.24,30.24,0,0,1-8.87,2.51,16,16,0,0,0,6.79-8.8,30.65,30.65,0,0,1-9.81,3.86,15.23,15.23,0,0,0-11.28-5,15.68,15.68,0,0,0-15.45,15.9,16.53,16.53,0,0,0,.4,3.62A43.46,43.46,0,0,1,66.09,96.62a16.23,16.23,0,0,0,4.78,21.23,15,15,0,0,1-7-2h0a15.8,15.8,0,0,0,12.39,15.79,14.82,14.82,0,0,1-4.07.56,15.52,15.52,0,0,1-2.91-.28,15.53,15.53,0,0,0,14.43,11,30.38,30.38,0,0,1-19.18,6.81,32.07,32.07,0,0,1-3.69-.22,42.85,42.85,0,0,0,23.68,7.14c28.42,0,43.95-24.23,43.95-45.25,0-.69,0-1.37,0-2A32,32,0,0,0,136.15,101.16Z"/></svg>